<svg width="32" height="32" viewBox="0 0 32 32" fill="none" xmlns="http://www.w3.org/2000/svg">
<path d="M23.9966 29.4897C22.4459 31.0377 20.7527 30.7932 19.1229 30.06C17.3981 29.3105 15.8157 29.2779 13.996 30.06C11.7174 31.0702 10.5148 30.7769 9.15392 29.4897C1.43193 21.2937 2.57124 8.81231 11.3376 8.35607C13.4738 8.47013 14.9612 9.56184 16.2113 9.65961C18.0785 9.26855 19.8666 8.14424 21.8604 8.29089C24.2498 8.48642 26.0537 9.46408 27.2405 11.2239C22.3035 14.2709 23.4744 20.9678 28 22.8417C27.098 25.2858 25.9271 27.7136 23.9808 29.506L23.9966 29.4897ZM16.0531 8.2583C15.8157 4.62469 18.6798 1.62655 21.9712 1.33325C22.43 5.53717 18.2684 8.66566 16.0531 8.2583Z" fill="white"/>
</svg>
