<svg width="24" height="24" viewBox="0 0 24 24" fill="none" xmlns="http://www.w3.org/2000/svg">
<path d="M12.238 2C15.3824 2 18.2938 3.395 20.2244 5.744C20.2794 5.81059 20.3205 5.88756 20.3451 5.97033C20.3698 6.05311 20.3775 6.14 20.3679 6.22583C20.3583 6.31167 20.3315 6.39469 20.2892 6.46997C20.2469 6.54524 20.1898 6.61123 20.1214 6.664C19.9823 6.7731 19.8061 6.82368 19.6303 6.80501C19.4544 6.78634 19.2928 6.69989 19.1796 6.564C18.3355 5.54117 17.2748 4.71854 16.0742 4.15547C14.8736 3.59241 13.563 3.30295 12.237 3.308C7.32296 3.308 3.33874 7.2 3.33874 12C3.33874 16.8 7.32296 20.692 12.237 20.692C13.5821 20.6973 14.9112 20.3995 16.1255 19.8208C17.3399 19.2421 18.4083 18.3972 19.2516 17.349C19.3629 17.2117 19.5232 17.1231 19.6986 17.102C19.8741 17.0809 20.0508 17.129 20.1914 17.236C20.2604 17.2879 20.3182 17.3531 20.3615 17.4277C20.4048 17.5024 20.4326 17.585 20.4433 17.6706C20.454 17.7563 20.4474 17.8432 20.4239 17.9262C20.4004 18.0093 20.3604 18.0867 20.3064 18.154C18.3788 20.564 15.4284 22 12.238 22C6.5821 22 2 17.523 2 12C2 6.477 6.5831 2 12.238 2ZM19.0946 9.16L21.8001 11.867C22.0621 12.128 22.0671 12.547 21.8121 12.803L19.1686 15.446C19.1067 15.507 19.0332 15.5552 18.9526 15.5877C18.8719 15.6203 18.7856 15.6366 18.6986 15.6356C18.6117 15.6347 18.5257 15.6166 18.4458 15.5823C18.3659 15.5481 18.2935 15.4983 18.2328 15.436C18.1703 15.3754 18.1203 15.303 18.0859 15.223C18.0515 15.1429 18.0332 15.0569 18.0322 14.9698C18.0312 14.8827 18.0474 14.7962 18.08 14.7154C18.1125 14.6346 18.1607 14.5611 18.2218 14.499L19.7685 12.952H9.46054C9.37354 12.9533 9.28715 12.9374 9.20633 12.9052C9.1255 12.873 9.05184 12.8252 8.98958 12.7644C8.92733 12.7036 8.8777 12.6311 8.84356 12.5511C8.80942 12.471 8.79145 12.385 8.79067 12.298C8.79067 11.936 9.09061 11.643 9.46054 11.643H19.7275L18.1698 10.085C18.1074 10.0244 18.0576 9.95205 18.0233 9.87212C17.9889 9.7922 17.9707 9.70627 17.9697 9.61929C17.9687 9.5323 17.9849 9.44597 18.0173 9.36526C18.0498 9.28455 18.0979 9.21106 18.1588 9.149C18.2209 9.08804 18.2944 9.03994 18.375 9.00748C18.4557 8.97502 18.5421 8.95884 18.629 8.95986C18.716 8.96088 18.8019 8.97909 18.8818 9.01344C18.9617 9.04778 19.034 9.09759 19.0946 9.16Z" fill="white"/>
</svg>
