<svg width="16" height="17" viewBox="0 0 16 17" fill="none" xmlns="http://www.w3.org/2000/svg">
<path d="M10 5.8335C10 6.93806 9.1046 7.8335 8 7.8335C6.8954 7.8335 6 6.93806 6 5.8335C6 4.72893 6.8954 3.8335 8 3.8335C9.1046 3.8335 10 4.72893 10 5.8335Z" stroke="#1986D4" stroke-linecap="round" stroke-linejoin="round"/>
<path d="M10.6667 3.1665C11.7713 3.1665 12.6667 4.06194 12.6667 5.1665C12.6667 5.9819 12.1787 6.68332 11.4789 6.9947" stroke="#1986D4" stroke-linecap="round" stroke-linejoin="round"/>
<path d="M9.14288 9.8335H6.85715C5.27919 9.8335 4 11.1127 4 12.6906C4 13.3218 4.51167 13.8335 5.14285 13.8335H10.8571C11.4883 13.8335 12 13.3218 12 12.6906C12 11.1127 10.7208 9.8335 9.14288 9.8335Z" stroke="#1986D4" stroke-linecap="round" stroke-linejoin="round"/>
<path d="M11.8096 9.1665C13.3875 9.1665 14.6667 10.4457 14.6667 12.0236C14.6667 12.6548 14.155 13.1665 13.5238 13.1665" stroke="#1986D4" stroke-linecap="round" stroke-linejoin="round"/>
<path d="M5.33325 3.1665C4.22869 3.1665 3.33325 4.06194 3.33325 5.1665C3.33325 5.9819 3.82121 6.68332 4.52104 6.9947" stroke="#1986D4" stroke-linecap="round" stroke-linejoin="round"/>
<path d="M2.47611 13.1665C1.84493 13.1665 1.33325 12.6548 1.33325 12.0236C1.33325 10.4457 2.61244 9.1665 4.19039 9.1665" stroke="#1986D4" stroke-linecap="round" stroke-linejoin="round"/>
</svg>
